<svg xmlns="http://www.w3.org/2000/svg" width="1160.053" height="811.823" viewBox="0 0 1160.053 811.823"><g transform="translate(-78 -246)"><path d="M-403.164-2587.368s121.1-131.607,191.937-97.59,64.282,84.056,103.639,97.59,76.089,6.73,48.54,65.693-39.356,104.32-145.619,97.516-181.845-34.017-198.5-88.445S-403.164-2587.368-403.164-2587.368Z" transform="matrix(-0.999, -0.052, 0.052, -0.999, 186.233, -1650.552)" fill="rgba(245,241,241,0.41)"/><path d="M-397.974-2589s206.025-129.526,326.551-96.046S37.943-2602.32,104.9-2589s129.454,6.624,82.582,64.655-66.959,102.67-247.747,95.974-309.38-33.479-337.711-87.046S-397.974-2589-397.974-2589Z" transform="matrix(0.995, -0.105, 0.105, 0.995, 1289.148, 3429.313)" fill="rgba(245,241,241,0.41)"/><path d="M1306.442,3933.809a174.679,174.679,0,0,1-38.407-4.3,178.4,178.4,0,0,1-37-12.777,180.761,180.761,0,0,1-34.062-21.059,185.775,185.775,0,0,1-49.345-59.043,181.457,181.457,0,0,1-13.211-32.054,179.416,179.416,0,0,1-6.74-33.229,176.935,176.935,0,0,1-.353-33.421,172.924,172.924,0,0,1,5.951-32.63,168.017,168.017,0,0,1,12.172-30.855,164.148,164.148,0,0,1,100.812-82.717l-49.915,40.421,6.293,7.771,65.264-52.849a170.385,170.385,0,0,1,22.578-1.781l-79.77,64.6,6.293,7.772,88.76-71.877c5.5.421,11.063,1.115,16.522,2.062l-97.73,79.139,6.293,7.772,104.037-84.249c5.007,1.25,10.024,2.74,14.913,4.428l-110.878,89.787,6.293,7.771,115.384-93.435c4.366,1.831,8.714,3.862,12.925,6.037l-120.238,97.365,6.294,7.771,123.372-99.9c3.849,2.29,7.661,4.755,11.331,7.328l-126.631,102.544,6.293,7.771,128.619-104.153c3.4,2.682,6.745,5.525,9.948,8.448l-130.495,105.672,6.293,7.771,131.455-106.45c2.986,3.041,5.907,6.229,8.681,9.475l-132.064,106.943,6.293,7.771L1434.728,3656.5c2.606,3.4,5.116,6.921,7.46,10.462l-131.451,106.447,6.293,7.771,130.489-105.667c2.2,3.748,4.279,7.614,6.192,11.489L1325.1,3791.148l6.293,7.772,126.621-102.536c1.757,4.136,3.374,8.379,4.809,12.609l-123.358,99.895,6.294,7.771,120.221-97.354c1.253,4.582,2.334,9.258,3.214,13.9l-115.364,93.42,6.293,7.771,110.856-89.769c.634,5.14,1.046,10.358,1.226,15.51l-104.011,84.227,6.294,7.771,97.7-79.115a175.366,175.366,0,0,1-1.589,17.79l-88.039,71.293,6.294,7.771,78.906-63.9a170.345,170.345,0,0,1-6.15,20.42l-65.2,52.8,6.293,7.771,49.833-40.354a164.406,164.406,0,0,1-91.423,78.108A167.4,167.4,0,0,1,1306.442,3933.809Z" transform="translate(-308.301 -3168.394)" fill="#ffc8c8"/><rect width="10" height="6.304" transform="translate(879.967 453.78) rotate(-129)" fill="#fff"/><rect width="12" height="46" rx="6" transform="translate(321.13 358.618) rotate(-59)" fill="#f2c1f9"/><rect width="12" height="46" rx="6" transform="translate(306.194 383.476) rotate(-59)" fill="#f2c1f9"/><rect width="12" height="56" rx="6" transform="translate(319.769 341.468) rotate(-59)" fill="#f2c1f9"/><rect width="12" height="38" rx="6" transform="translate(342.924 337.881) rotate(-59)" fill="#f2c1f9"/><rect width="12" height="65" rx="6" transform="translate(282.183 386.548) rotate(-59)" fill="#f2c1f9"/><rect width="11" height="61" rx="5.5" transform="translate(330.935 313.177) rotate(-59)" fill="#f2c1f9"/><rect width="12" height="92" rx="6" transform="translate(311.573 285.211) rotate(-59)" fill="#f2c1f9"/><rect width="12" height="34" rx="6" transform="translate(323.691 377.656) rotate(-59)" fill="#f2c1f9"/><path d="M69.674,0l69.674,111.026H0Z" transform="translate(669.951 437.735) rotate(-141)" fill="#a9fecb"/><ellipse cx="141.5" cy="147" rx="141.5" ry="147" transform="translate(78 473)" fill="#f6ffc8"/><g transform="translate(196 246)"><path d="M102.225,1.334A7.414,7.414,0,0,0,99.838.692,38.719,38.719,0,0,0,92.374,0,137.709,137.709,0,0,0,69.3,2.074c-4.8.83-10.61,3.622-15.388,2.106-8.324-2.642-16.738-2.512-24.635,1.26-7.221,3.449-12.7,10-15.9,17.078a43.407,43.407,0,0,0-2.995,7.652c-.237.542-.465,1.088-.67,1.642-.582,1.573-1.1,3.173-1.59,4.777-.207.684-.729,2.194-.11,2.486a45.46,45.46,0,0,0-2.6,5.652C3.286,50.378.962,56.578.215,62.568a27.912,27.912,0,0,0-.03,6.671c.127,1.1.074,3.307.819,4.142,1.58,1.772,2.392-.709,2.214-1.89C1.858,62.485,4.485,54.027,7.6,45.561a53.276,53.276,0,0,1,9.027-15.019,37.906,37.906,0,0,1,10.328-9,161.472,161.472,0,0,1,15.728-7.8c3.5-1.588,7.009-3.134,10.61-4.5a10.575,10.575,0,0,1,2.948-1.088c1.877-.007,4.537,1.379,6.351,1.894,5.964,1.7,12,3.867,18.168,4.733A23.43,23.43,0,0,0,92.113,13.4a10.628,10.628,0,0,0,1.787-.974,25.936,25.936,0,0,0,7.6-4.3,30.324,30.324,0,0,0,3.563-3.839,2.011,2.011,0,0,0,.47-1.264c.244-.128.406-.277.443-.451.269-1.286-2.184-1.31-3.754-1.233" transform="translate(588 194)" fill="#89c5cc"/><path d="M11.933,0C9.99,0,8.054.039,6.115.139,4.636.216,2.377-.089,1.126.828c-1.3.953-1.21,2.9-1.007,4.28,1.073,7.282,3.693,13.739,9.174,18.9,8.439,7.944,18.113,11.981,29.561,13.778,8.042,1.263,15.465-.491,21.385-6.181a88.518,88.518,0,0,1,9.253,25.752,61.405,61.405,0,0,1,.917,13.236c-.092,2.872-.251,5.736-.56,8.594-.134,1.242-.77,3.122-.282,4.3a1.974,1.974,0,0,0,3.375.336c.722-.978.59-2.9.738-4.056.246-1.923.474-3.847.637-5.778.265-3.126.46-6.262.446-9.4A69.774,69.774,0,0,0,71,43.758C66.865,30.916,60.158,19.5,49.726,10.55,43.311,5.043,35.97,2.814,27.641,1.617A111.241,111.241,0,0,0,11.933,0" transform="translate(56 310.05) rotate(-39)" fill="#dde3e9"/><path d="M81.472,180.815c-1.575-12.542-3.242-25.012-6.294-37.31-1.8-7.247-4.1-14.342-6.2-21.506q.282,1.348.5,2.71c-.729-2.137-2.25-4.181-3.126-6.31-.976-2.375-1.761-4.842-2.507-7.294-1.456-4.786-2.83-9.58-4.468-14.311-1.826-5.271-3.928-10.454-5.887-15.679A127.246,127.246,0,0,0,48.105,67.8c-1.18-2.306-2.237-4.784-3.4-7.135-.388-.787-3.714-9.576-3.689-9.576.55,0,2.613,3.907,2.954,4.481,1,1.676,1.847,3.421,2.7,5.168a23.014,23.014,0,0,1,1.88-6.015c.285-.589,2.285-4.932,2.936-4.932.325,0-2.681,8.2-3.061,8.922a14.855,14.855,0,0,0-1.088,1.949c-.325,1-.158.754.111,1.66A47.616,47.616,0,0,0,49.724,67.2a34.728,34.728,0,0,0,2.205,5.126C54.252,76.868,55.9,82.4,57.671,87.3a32.055,32.055,0,0,1,1.949-6.988c.216-.538,1.934-5.525,2.429-5.525.557,0-1.576,7.988-1.865,8.678-.538,1.282-1.384,2.522-1.832,3.827-.491,1.432.372,2.721.921,4.185,2.022,5.388,3.794,10.83,5.414,16.345,9.406-4.12,11.276-16.244,11.89-25.185A62.468,62.468,0,0,0,74.458,63.38c-2.087-8.343-5.6-16.4-9.324-24.151A86.4,86.4,0,0,0,47.626,15.05,92.388,92.388,0,0,0,35.22,5.139a26.4,26.4,0,0,0-6.8-3.5A24.612,24.612,0,0,0,24.995.8C24.112.644,22.311-.175,21.58.034,15.6,1.687,11.112,4.437,7.63,9.548a44.722,44.722,0,0,0-6.48,16.3A51.867,51.867,0,0,0,.665,44.9,117.757,117.757,0,0,0,4.357,59.215c5.095,16.753,14.025,34.713,30.05,43.9a48.771,48.771,0,0,0,16.85,5.636c1.392.217,2.783.424,4.192.5.95.054,4.072-.577,4.76-.167.942.561,1.483,3.746,1.894,4.9,3.12,8.777,5.91,17.653,8.442,26.608,2.693,9.528,4.833,19.148,6.615,28.876.758,4.138,1.5,8.268,2.125,12.428.147.968,0,4.012.94,4.867a1.139,1.139,0,0,0,1.8-.343c.618-1.151-.389-4.328-.55-5.612" transform="matrix(0.799, -0.602, 0.602, 0.799, 1, 171.481)" fill="#c1dee2"/><path d="M85.98.66A47.063,47.063,0,0,0,75.329.033,66.182,66.182,0,0,0,26.489,23.2c-10.138,12-12.926,26.92-14.928,42-.2,1.5-.284,2.985-.4,4.486-.024.322-.06.609-.1.88A1.937,1.937,0,0,0,10.332,73,100.261,100.261,0,0,0,5.869,84.706C2.162,96.526-1.608,108.571.714,121a173.656,173.656,0,0,1,3.049-20.562c.079-.386.163-.769.252-1.151.009-.04.017-.081.027-.121a44.965,44.965,0,0,1,1.875-6.026c.008-.022.016-.043.024-.064.1-.259.208-.516.314-.774.219-.533.444-1.065.682-1.594q.121-.27.232-.546c1.112-2.726,1.582-5.8,2.578-8.618q.358-.962.749-1.916l.047-.112c.706-1.71,1.485-3.4,2.31-5.071a6.244,6.244,0,0,0,1.074-1.931,12.073,12.073,0,0,0,.891-1.722q.728-1.409,1.458-2.816l-.044.016q.734-1.35,1.467-2.689l.323-.589.524-.938c1.632-2.921,3.363-5.783,5.16-8.61.641-1.009,2.174-2.455,2.468-3.588.011-.042.013-.081.02-.122A64.29,64.29,0,0,1,39.967,36.924c-.651.7-2.034,3.091-2.4,3.564-1.119,1.447-2.334,2.795-3.554,4.158A88.517,88.517,0,0,0,27.8,52.274,144.959,144.959,0,0,0,18.519,67.51c-.027.031-.056.06-.082.091C17.017,69.352,16.123,72,15.1,74c4.046-1.874,8.521-3.1,12.674-4.759a104.134,104.134,0,0,0,12.059-5.676A134.574,134.574,0,0,0,55.25,53.743,61.078,61.078,0,0,0,69.7,40.477c4.912-5.934,9.414-11.919,12.2-19.124a57.426,57.426,0,0,0,3.082-10.967c.028-.163.064-.339.1-.523a35.925,35.925,0,0,0,1.726-3.958c.778-2.14,2.614-4.494-.83-5.246" transform="translate(595 231)" fill="#69a1ac"/><path d="M-1.323,82c.221,0,.463-.17.72-.5.593-.772.118-3.281-.138-4.629-.046-.24-.085-.447-.107-.587a29,29,0,0,0-.767-3.508,101.182,101.182,0,0,0-3.734-10.3c-.511-1.255-1.046-2.555-1.59-3.866-.1-.244-.188-.423-.258-.568-.25-.519-.25-.519.258-1.073l.09-.1a7.037,7.037,0,0,1,.925-.8,8.618,8.618,0,0,0,.778-.647A17.431,17.431,0,0,0-.892,48.375a17.684,17.684,0,0,0,.77-7.707A30.3,30.3,0,0,0-2.1,33.112,60.645,60.645,0,0,0-8.252,21.224a54.813,54.813,0,0,0-8.732-10.263c-3.551-3.223-8.292-6-14.5-8.479A30.708,30.708,0,0,0-40.75.313C-41.2.282-41.657.266-42.121.266a25.156,25.156,0,0,0-3.079.2c-.289.036-.591.095-.883.152a9.077,9.077,0,0,1-1.252.186l-.2.011c-.139.008-.247.014-.342.014-.384,0-.535-.111-1.018-.586A.7.7,0,0,0-49.354,0a.416.416,0,0,0-.374.319,1.144,1.144,0,0,0,.314,1.2,8.554,8.554,0,0,0-3.918,3.464A12.334,12.334,0,0,0-54.87,9.91,35.6,35.6,0,0,0-54.025,20.5,48.528,48.528,0,0,0-50.6,31.063a55.578,55.578,0,0,0,5.532,9.453,79.906,79.906,0,0,0,15.64,15.85,22.847,22.847,0,0,0,10.506,4.8,12.244,12.244,0,0,0,2,.166,13.419,13.419,0,0,0,4.2-.7c.105-.035.24-.074.4-.119.64-.185,1.607-.464,1.846-.863.214-.359.016-.669-.235-1.062-.074-.116-.15-.235-.222-.366q-.415-.753-.828-1.506c-.727-1.324-1.479-2.694-2.232-4.032-.119-.212-.245-.49-.378-.786a5.134,5.134,0,0,0-1.147-1.863.707.707,0,0,0-.19-.018,1.483,1.483,0,0,1-.6-.1c-.127-.081-.147-.311-.161-.463-.007-.077-.012-.137-.029-.147a6.522,6.522,0,0,0-2.274-.522c-.383-.045-.745-.087-1.031-.148-.789-.169-1.719-.38-2.638-.667a29.266,29.266,0,0,1-2.769-1.028c-.192-.082-.469-.241-.762-.41a5.243,5.243,0,0,0-1.552-.712A25.35,25.35,0,0,1-21.6,46.879a23.094,23.094,0,0,1,3.091,1.076c.121.052.322.163.554.292a5.139,5.139,0,0,0,1.62.7.264.264,0,0,0,.135-.03,60.263,60.263,0,0,0-4.122-5.869c-.768-.971-1.581-2.019-2.314-3.1-.047-.07-.164-.28-.311-.545a8.135,8.135,0,0,0-1.29-1.982c.468,0,1.484,1.1,2.092,1.75.176.19.328.353.424.445A28.275,28.275,0,0,1-19.488,42a54.1,54.1,0,0,1,3.313,4.492c1.468,2.193,2.757,4.479,3.953,6.634.275.5.572,1,.859,1.5a29.671,29.671,0,0,1,2.141,4.152.252.252,0,0,1,.149-.063c.16,0,.236.258.31.507a2.663,2.663,0,0,0,.084.254c.388.931.767,1.842,1.14,2.749.787,1.915,1.416,3.5,1.981,4.977l.03.079c.662,1.736,1.347,3.531,1.9,5.332a30.508,30.508,0,0,1,1.138,5.17c.088.7.149,1.406.182,2.1C-2.284,80.446-2,82-1.323,82ZM-4.54,49.348a18.932,18.932,0,0,1-3,5c.7-1.036,1.3-1.987,1.843-2.907.123-.208.356-.643.583-1.064C-4.831,49.853-4.565,49.358-4.54,49.348ZM-17.9,34.774c.318,0,.658,2.847.693,3.32a13.873,13.873,0,0,1-.547,4.673l0,.007,0-.007a17.9,17.9,0,0,0-.142-2.243c-.2-2.234-.472-5.294-.1-5.7A.125.125,0,0,1-17.9,34.774Z" transform="matrix(0.53, -0.848, 0.848, 0.53, 76.146, 219)" fill="#89c5cc"/><g transform="translate(39 358)" opacity="0.6"><path d="M661.711,146.152c9.65,65.324-224.374,107.932-425.8,78.2S-57.928,78.493,38.191,16.62,652.061,80.828,661.711,146.152Z" fill="#dde3e9"/></g><g transform="translate(138 76)"><rect width="159" height="302" rx="8" fill="#f2f2f2"/><circle cx="15" cy="15" r="15" transform="translate(64 253)" fill="#fff"/><g transform="translate(64 16)"><circle cx="2" cy="2" r="2" fill="#fff"/><rect width="21" height="4" rx="2" transform="translate(9)" fill="#fff"/></g><g transform="translate(14 28)"><rect width="131" height="54" rx="4" fill="#fff"/><g transform="translate(39 16.2)"><rect width="73" height="8.1" rx="3" fill="#dde3e9"/><rect width="49" height="8.1" rx="3" transform="translate(0 13.5)" fill="#dde3e9"/></g><circle cx="12" cy="12" r="12" transform="translate(9 15)" fill="#c5cfd6"/><g transform="translate(0 62)"><rect width="131" height="42" rx="4" fill="#fff"/><g transform="translate(39 12.6)"><rect width="73" height="6.3" rx="3" fill="#dde3e9"/><rect width="49" height="6.3" rx="3" transform="translate(0 10.5)" fill="#dde3e9"/></g><circle cx="12" cy="12" r="12" transform="translate(9 9)" fill="#c5cfd6"/></g><g transform="translate(0 112)"><rect width="131" height="42" rx="4" fill="#fff"/><g transform="translate(39 12.6)"><rect width="73" height="6.3" rx="3" fill="#dde3e9"/><rect width="49" height="6.3" rx="3" transform="translate(0 10.5)" fill="#dde3e9"/></g><circle cx="12" cy="12" r="12" transform="translate(9 9)" fill="#afb9c5"/></g><g transform="translate(0 162)"><rect width="131" height="42" rx="4" fill="#fff"/><g transform="translate(39 12.6)"><rect width="73" height="6.3" rx="3" fill="#dde3e9"/><rect width="49" height="6.3" rx="3" transform="translate(0 10.5)" fill="#dde3e9"/></g><circle cx="12" cy="12" r="12" transform="translate(9 9)" fill="#c5cfd6"/></g></g></g><g transform="translate(156 102)"><g transform="translate(0 218)"><path d="M8.14,0C6.815,0,5.494.027,4.171.1,3.162.148,1.621-.061.768.568-.119,1.221-.058,2.557.081,3.5.813,8.493,2.6,12.919,6.339,16.456,12.1,21.9,18.695,24.668,26.5,25.9c5.486.866,10.55-.336,14.588-4.237A60.868,60.868,0,0,1,47.4,39.315a42.292,42.292,0,0,1,.626,9.073c-.063,1.968-.171,3.932-.382,5.891-.091.851-.526,2.14-.192,2.944a1.343,1.343,0,0,0,2.3.231c.493-.67.4-1.987.5-2.78.168-1.318.323-2.637.434-3.961.181-2.143.314-4.292.3-6.444a48.036,48.036,0,0,0-2.567-14.274c-2.82-8.8-7.4-16.625-14.512-22.763-4.376-3.774-9.383-5.3-15.065-6.123A75.529,75.529,0,0,0,8.14,0" transform="translate(4)" fill="#89c5cc"/><path d="M32.571,0C18.272,0,8.642,11.524,4.089,23.5c-1.716,4.515-2.119,9.472-2.78,14.213-.212,1.521-.134,3.839-.751,5.195-.224.491-.738.668-.492,1.338a1.086,1.086,0,0,0,.879.734c.9.166,2.171-.814,2.942-1.2,6.4-3.208,10.6-8.168,14.027-14.236a60.584,60.584,0,0,0,5.544-11.8,40.769,40.769,0,0,0,1.484-7.8,29.682,29.682,0,0,0,.2-3.122,6.3,6.3,0,0,0-.829-2.468c4.771-1.806,10.156-2.3,14.989-.427a19.209,19.209,0,0,1,10.262,9.279,17.7,17.7,0,0,1,1.26,3.42A11.772,11.772,0,0,0,51.4,19.1c.893,1.687,2.771.559,2.59-1.011A20.315,20.315,0,0,0,47.775,6.263,22.349,22.349,0,0,0,32.571,0" transform="translate(0 35)" fill="#89c5cc"/></g><rect width="159" height="302" rx="8" transform="translate(48)" fill="#dde3e9"/><circle cx="15" cy="15" r="15" transform="translate(112 253)" fill="#fff"/><g transform="translate(112 16)"><circle cx="2" cy="2" r="2" fill="#fff"/><rect width="21" height="4" rx="2" transform="translate(9)" fill="#fff"/></g><g transform="translate(62 28)"><rect width="131" height="54" rx="4" fill="#fff"/><g transform="translate(9 16.2)"><rect width="73" height="8.1" rx="3" fill="#dde3e9"/><rect width="49" height="8.1" rx="3" transform="translate(0 13.5)" fill="#dde3e9"/></g><g transform="translate(110 20)"><circle cx="7" cy="7" r="7" fill="#dde3e9"/><circle cx="3" cy="3" r="3" transform="translate(4 4)" fill="#f2f2f2"/></g><g transform="translate(0 62)"><rect width="131" height="42" rx="4" fill="#fff"/><g transform="translate(39 12.6)"><rect width="73" height="6.3" rx="3" fill="#dde3e9"/><rect width="49" height="6.3" rx="3" transform="translate(0 10.5)" fill="#dde3e9"/></g><circle cx="12" cy="12" r="12" transform="translate(9 9)" fill="#c5cfd6"/></g><g transform="translate(0 112)"><rect width="131" height="42" rx="4" fill="#fff"/><g transform="translate(9 12.6)"><rect width="73" height="6.3" rx="3" fill="#dde3e9"/><rect width="49" height="6.3" rx="3" transform="translate(0 10.5)" fill="#afb9c5"/></g><g transform="translate(110 14)"><circle cx="7" cy="7" r="7" fill="#dde3e9"/><circle cx="3" cy="3" r="3" transform="translate(4 4)" fill="#f2f2f2"/></g></g><g transform="translate(0 162)"><rect width="131" height="42" rx="4" fill="#fff"/><g transform="translate(39 12.6)"><rect width="73" height="6.3" rx="3" fill="#dde3e9"/><rect width="49" height="6.3" rx="3" transform="translate(0 10.5)" fill="#dde3e9"/></g><circle cx="12" cy="12" r="12" transform="translate(9 9)" fill="#c5cfd6"/></g></g></g><g transform="translate(270 127)"><rect width="335" height="346" rx="8" fill="#f2f2f2"/><rect width="70" height="81" rx="8" transform="translate(249 43)" fill="#fff"/><g transform="translate(259 58)"><circle cx="16" cy="16" r="16" transform="translate(9)" fill="#dde3e9"/><rect width="50" height="6" rx="3" transform="translate(0 36)" fill="#dde3e9"/><rect width="34" height="6" rx="3" transform="translate(8 46)" fill="#dde3e9"/></g><path d="M8,0H327a8,8,0,0,1,8,8V27a0,0,0,0,1,0,0H0a0,0,0,0,1,0,0V8A8,8,0,0,1,8,0Z" fill="#c5cfd6"/><g transform="translate(9 10)"><circle cx="4" cy="4" r="4" fill="#f2f2f2"/><circle cx="4" cy="4" r="4" transform="translate(12)" fill="#f2f2f2"/><circle cx="4" cy="4" r="4" transform="translate(24)" fill="#f2f2f2"/></g><g transform="translate(249 132)"><rect width="70" height="194" rx="8" fill="#fff"/><g transform="translate(18 18)"><rect width="34" height="26" rx="4" fill="#dde3e9"/><rect width="34" height="25" rx="4" transform="translate(0 34)" fill="#afb9c5"/><rect width="34" height="25" rx="4" transform="translate(0 67)" fill="#dde3e9"/><rect width="34" height="25" rx="4" transform="translate(0 133)" fill="#dde3e9"/><rect width="34" height="25" rx="4" transform="translate(0 100)" fill="#c5cfd6"/></g></g><g transform="translate(16 44)"><rect width="225" height="47" rx="4" fill="#fff"/><g transform="translate(9 14.1)"><rect width="167" height="7.05" rx="3" fill="#dde3e9"/><rect width="112.096" height="7.05" rx="3" transform="translate(0 11.75)" fill="#dde3e9"/></g><g transform="translate(193.954 16.5)"><circle cx="7" cy="7" r="7" fill="#dde3e9"/><circle cx="3" cy="3" r="3" transform="translate(4 4)" fill="#f2f2f2"/></g><g transform="translate(0 55)"><rect width="225" height="39" rx="4" fill="#fff"/><g transform="translate(9 11.7)"><rect width="167" height="5.85" rx="2.925" fill="#dde3e9"/><rect width="112.096" height="5.85" rx="2.925" transform="translate(0 9.75)" fill="#dde3e9"/></g><g transform="translate(193.954 12.5)"><circle cx="7" cy="7" r="7" fill="#dde3e9"/><circle cx="3" cy="3" r="3" transform="translate(4 4)" fill="#f2f2f2"/></g></g><g transform="translate(0 102)"><rect width="225" height="39" rx="4" fill="#fff"/><g transform="translate(9 11.7)"><rect width="167" height="5.85" rx="2.925" fill="#dde3e9"/><rect width="112.096" height="5.85" rx="2.925" transform="translate(0 9.75)" fill="#dde3e9"/></g><g transform="translate(193.954 12.5)"><circle cx="7" cy="7" r="7" fill="#dde3e9"/><circle cx="3" cy="3" r="3" transform="translate(4 4)" fill="#afb9c5"/></g></g><g transform="translate(0 243)"><rect width="225" height="39" rx="4" fill="#fff"/><g transform="translate(9 11.7)"><rect width="167" height="5.85" rx="2.925" fill="#dde3e9"/><rect width="112.096" height="5.85" rx="2.925" transform="translate(0 9.75)" fill="#dde3e9"/></g><g transform="translate(193.954 12.5)"><circle cx="7" cy="7" r="7" fill="#dde3e9"/><circle cx="3" cy="3" r="3" transform="translate(4 4)" fill="#f2f2f2"/></g></g><g transform="translate(0 196)"><rect width="225" height="39" rx="4" fill="#fff"/><g transform="translate(9 11.7)"><rect width="167" height="5.85" rx="2.925" fill="#dde3e9"/><rect width="112.096" height="5.85" rx="2.925" transform="translate(0 9.75)" fill="#dde3e9"/></g><g transform="translate(193.954 12.5)"><circle cx="7" cy="7" r="7" fill="#dde3e9"/><circle cx="3" cy="3" r="3" transform="translate(4 4)" fill="#f2f2f2"/></g></g><g transform="translate(0 149)"><rect width="225" height="39" rx="4" fill="#fff"/><g transform="translate(9 11.7)"><rect width="167" height="5.85" rx="2.925" fill="#dde3e9"/><rect width="112.096" height="5.85" rx="2.925" transform="translate(0 9.75)" fill="#dde3e9"/></g><g transform="translate(193.954 12.5)"><circle cx="7" cy="7" r="7" fill="#dde3e9"/><circle cx="3" cy="3" r="3" transform="translate(4 4)" fill="#f2f2f2"/></g></g></g></g><path d="M127.986,3.376C124.041.7,118.8,0,114.076,0,95.64,0,78.311,6.84,63.341,17.032a118.671,118.671,0,0,0-22.019,20.1,58.867,58.867,0,0,0-9.434,14.041A48.375,48.375,0,0,0,28.46,61.991,111.159,111.159,0,0,0,26.515,75.8c-.128,1.82-1.185,11.477,1.841,11.641a4.177,4.177,0,0,0,0,.668c-6.57,10.274-10.63,22.314-14.394,33.729A229.732,229.732,0,0,0,5.87,152.063,329.391,329.391,0,0,0,.958,193.05C.791,196,.676,198.95.577,201.9q-.126,3.779-.251,7.557c-.092,2.823-.589,6.073-.14,8.88.391,2.444,2.506,2.074,2.6-.358.113-2.937.095-5.88.223-8.82q.256-5.852.538-11.7a273.592,273.592,0,0,1,15.515-79.376,185.077,185.077,0,0,1,13.474-29.74A207.372,207.372,0,0,1,49.084,64.173c5.762-7.38,11.752-14.59,18.812-20.843A144.678,144.678,0,0,1,86.4,29.722C94.631,24.5,102.843,19.4,111.755,15.391c4.633-2.084,9.353-3.95,14.021-5.95.84-.36,1.741-.709,2.549-1.126,2.7-1.39,1.808-3.483-.34-4.939" transform="translate(560 294)" fill="#c1dee2"/><path d="M-58.182,0c7.477,0,14.131.972,21.02,3.943A93.43,93.43,0,0,1-20.533,13.6c7.4,5.2,13.232,11.249,17.312,19.266,2.438,4.789,4.226,11.566,2.589,16.79-1.929,6.152-7.224,11.284-14.2,10.2-4.313-.67-8.267-3.525-11.545-6.212A43.659,43.659,0,0,1-36.028,42.27c-4.228-7-6.713-14.919-10.3-22.237-1.7-3.473-3.351-6.971-5.393-10.271a16.569,16.569,0,0,0-3.619-4.468c-.82-.65-4.278-1.774-2.956-3.233-19.39.255-36.568,15.147-40.291,33.58-.347,1.718-.618,3.45-.9,5.179-.181,1.092-.108,5.117-1.084,5.814-2.152,1.538-1.247-3.135-1.155-3.807q.358-2.608.76-5.211A43.366,43.366,0,0,1-88.315,12.683C-80.306,4.99-69.5,0-58.182,0" transform="translate(672 392)" fill="#89c5cc"/><g transform="translate(65 333)"><path d="M9.938,35.736C28.6,67.052,50.345,97.374,63.4,131.613c-.526-4.036-1.084-8.067-1.708-12.093-3.313-21.341-7.43-42.526-11.757-63.685-2.2-10.773-4.534-21.507-6.924-32.241C41.727,17.829,40.457,12.061,39.145,6.3c-.318-1.4-.591-3.832-.989-6.3C50.845,41.637,63.081,83.3,72.031,125.942q1.761,8.394,2.993,16.758c.28-1.272.556-2.544.857-3.813A246.4,246.4,0,0,1,91.4,94.374a134.951,134.951,0,0,1,10.825-19.648c2.608-3.863,8.757-8.455,11.136-12.412-13.01,23.861-17.707,53.717-25.219,79.659-1.833,6.331-3.678,12.651-5.486,18.982,11.328-22.718,28.9-41.384,53.341-49.473-29.58,19.544-47.322,53.771-59.278,88.777-.039.415-.086.83-.127,1.246,3.518-6.677,7.95-12.716,13.956-16.946,12.855-9.055,27.116-6.417,39.586,1.35-9.787-6.221-27.474-.556-35.709,5.767-5.9,4.526-10.933,10.6-15.308,16.523-1.048,1.42-2.479,3.077-3.989,4.845A218.405,218.405,0,0,1,64.672,254c.807-3.889.223-10.108.447-13.007.024-.314.044-.628.068-.941q-1.114,4.449-2.152,8.784a120.22,120.22,0,0,0,2.7-17.061q.225-3.743.451-7.487-.074-7.1-.574-14.253c-1.17-4.629-2.48-8.994-3.56-12.625a163.194,163.194,0,0,0-16.646-37.36,147.491,147.491,0,0,0-22.966-29.116c-4.78-4.717-9.783-9.21-14.716-13.765-1.784-1.647-4.972-5.7-7.729-7.806,20.08,11.071,40.749,23.047,55.4,40.884q-2.576-9.892-5.556-19.468C39.831,98.454,27.191,64.953,9.938,35.736Z" fill="#dde3e9"/><path d="M0,0C0,35.9,2.843,65,41,65S82,35.9,82,0" transform="translate(30 213)" fill="#c5cfd6"/></g><g transform="translate(520 52)"><rect width="6" height="25" rx="3" transform="translate(0 32)" fill="#dde3e9"/><rect width="6" height="41" rx="3" transform="translate(14 16)" fill="#dde3e9"/><rect width="6" height="49" rx="3" transform="translate(28 8)" fill="#dde3e9"/><rect width="6" height="41" rx="3" transform="translate(42 16)" fill="#dde3e9"/><rect width="6" height="57" rx="3" transform="translate(56)" fill="#c5cfd6"/></g><g transform="translate(68 338) rotate(180)"><path d="M-20,20.256A20.191,20.191,0,0,1,0,0V20.256L-13.668,35A20.073,20.073,0,0,1-20,20.256Z" transform="translate(20) rotate(180)" fill="#f2f2f2"/><path d="M-20.2,0H0A20.014,20.014,0,0,1-5.5,13.668,20.357,20.357,0,0,1-20.2,20,20.644,20.644,0,0,1-34,14.557Z" transform="translate(0.332 -20) rotate(180)" fill="#afb9c5"/><path d="M-20,20H0a19.745,19.745,0,0,0-1.578-7.765,20.041,20.041,0,0,0-4.3-6.359,20.04,20.04,0,0,0-6.359-4.3A19.746,19.746,0,0,0-20,0V20Zm-2-2v0L-30,0A18.353,18.353,0,0,0-40,10l18,8Z" transform="rotate(180)" fill="#c5cfd6"/></g><g transform="translate(641 330)"><path d="M37.766,37.179A10.513,10.513,0,1,1,30.1,19.5V0a30,30,0,1,0,0,60A29.69,29.69,0,0,0,52,50.5Z" fill="#f2f2f2"/><path d="M0,0V19.5A10.5,10.5,0,0,1,10.5,30H30A30.092,30.092,0,0,0,0,0Z" transform="translate(30)" fill="#afb9c5"/><path d="M4.1,0A10.64,10.64,0,0,1,0,8.391L12.262,24A30.413,30.413,0,0,0,24,0Z" transform="translate(36 30)" fill="#c5cfd6"/></g><g transform="translate(459 63)"><path d="M29.051,28.5a8.074,8.074,0,1,1-5.9-13.554V0A23.146,23.146,0,0,0,0,23,23.146,23.146,0,0,0,23.15,46,22.873,22.873,0,0,0,40,38.718Z" fill="#f2f2f2"/><path d="M0,0V14.95A8.05,8.05,0,0,1,8.05,23H23A23.071,23.071,0,0,0,0,0Z" transform="translate(23)" fill="#afb9c5"/><path d="M3.073,0A7.98,7.98,0,0,1,0,6.293L9.2,18A22.81,22.81,0,0,0,18,0Z" transform="translate(28 23)" fill="#c5cfd6"/></g><g transform="translate(76 57)"><path d="M1.007.986C1,1,1,1.006.993,1.018c.006-.01.014-.05.014-.032" transform="translate(47 51)" fill="#c5cfd6"/><path d="M1,1a.087.087,0,0,0,0,.01C1,1,1.014.971,1,1" transform="translate(47 51)" fill="#c5cfd6"/><path d="M1.067.832c-.014.04-.032.078-.048.118.008-.02.016-.036.024-.056-.208.52-.076.182.024-.062" transform="translate(47 51)" fill="#c5cfd6"/><path d="M1.022.953,1,1.009c-.058.112.024-.056.024-.056" transform="translate(47 51)" fill="#c5cfd6"/><path d="M1,1H1V1Z" transform="translate(47 51)" fill="#c5cfd6"/><path d="M1,1S1,1,1,1,1,1,1,1" transform="translate(47 51)" fill="#c5cfd6"/><path d="M.99,1.016c-.012.024.056-.092,0,0" transform="translate(47 51)" fill="#c5cfd6"/><path d="M1,1,1,1S1,1,1,1" transform="translate(47 51)" fill="#c5cfd6"/><rect width="95" height="63" rx="4" fill="#dde3e9"/><g transform="translate(8 18)"><path d="M28,0,0,45H56Z" fill="#afb9c5"/><path d="M24.5,0,0,33H49Z" transform="translate(31 12)" fill="#c5cfd6"/></g><circle cx="9" cy="9" r="9" transform="translate(65 12)" fill="#fff"/></g><g transform="translate(672 459) rotate(180)"><path d="M-1.007.986c0,.01.008.02.014.032C-1,1.008-1.007.968-1.007.986" transform="translate(70 -76) rotate(180)" fill="#c5cfd6"/><path d="M-1,1a.087.087,0,0,1,0,.01C-1,1-1.014.971-1,1" transform="translate(70 -76) rotate(180)" fill="#c5cfd6"/><path d="M-1.067.832c.014.04.032.078.048.118C-1.027.93-1.035.914-1.043.894c.208.52.076.182-.024-.062" transform="translate(70 -76) rotate(180)" fill="#c5cfd6"/><path d="M-1.022.953-1,1.009c.058.112-.024-.056-.024-.056" transform="translate(70 -76) rotate(180)" fill="#c5cfd6"/><path d="M-1,1h0V1Z" transform="translate(70 -76) rotate(180)" fill="#c5cfd6"/><path d="M-1,1s0,0,0,0,0,0,0,0" transform="translate(70 -76) rotate(180)" fill="#c5cfd6"/><path d="M-.99,1.016c.012.024-.056-.092,0,0" transform="translate(70 -76) rotate(180)" fill="#c5cfd6"/><path d="M-1,1l0,0s0,0,0,0" transform="translate(70 -76) rotate(180)" fill="#c5cfd6"/><rect width="142" height="94" rx="4" transform="translate(142) rotate(180)" fill="#dde3e9"/><g transform="translate(11 -27)"><path d="M-41.055,0,0,67H-82.11Z" transform="translate(0.671) rotate(180)" fill="#afb9c5"/><path d="M-36.295,0,0,49.054H-72.59Z" transform="translate(47.761 -17.946) rotate(180)" fill="#c5cfd6"/></g><circle cx="13.5" cy="13.5" r="13.5" transform="translate(124 -18) rotate(180)" fill="#fff"/></g></g><g transform="translate(759.937 445.832)"><g transform="translate(77.07 3.978)"><path d="M37.472,66.183a12.323,12.323,0,0,1-7.257-2.039,22.179,22.179,0,0,1-5.441-5.353c-1.61-2.125-3.068-4.488-4.52-6.774a52.238,52.238,0,0,0-4.487-6.309,11.67,11.67,0,0,0-3.872-2.827c-1.4-.67-2.863-1.155-4.256-1.708a13.46,13.46,0,0,1-3.828-2.12,8.332,8.332,0,0,1-2.6-4.061,24.137,24.137,0,0,1-.6-12.905A22.649,22.649,0,0,1,6.382,11.72,30.834,30.834,0,0,1,17.029,4.647,41.908,41.908,0,0,1,31.061,1.66,44.114,44.114,0,0,1,45.022,3.15a33.172,33.172,0,0,1,11.149,5.48,30.506,30.506,0,0,1,7.9,8.957,35.293,35.293,0,0,1,4.229,11.9,30.223,30.223,0,0,1-.681,13.079,32.311,32.311,0,0,1-5.965,11.66A31.954,31.954,0,0,1,51.3,62.68,32.3,32.3,0,0,1,37.472,66.183Z" transform="translate(35.425 14.509)" fill="#191847"/><g transform="translate(38.585 33.637)"><path d="M41.237,73.222,33.066,34.86a37.457,37.457,0,0,0,3.1-4.388,30.76,30.76,0,0,0,2.357-4.787,25.872,25.872,0,0,0,1.407-5.138,23.536,23.536,0,0,0,.256-5.438c-.372-5.351-2.493-9-5.553-11.282A17.875,17.875,0,0,0,23.482.716,28.829,28.829,0,0,0,11.593,3.669C8.045,5.428,5.168,7.849,3.756,10.59A35.517,35.517,0,0,0,.712,21.2,67.9,67.9,0,0,0,.065,33.98,41.816,41.816,0,0,0,1.842,45.031c1,2.962,2.411,4.984,4.236,5.41a7.6,7.6,0,0,0,2.755.008,20.778,20.778,0,0,0,3.7-.952,37.235,37.235,0,0,0,4.344-1.847,49.32,49.32,0,0,0,4.695-2.676L17.581,73.79Z" fill="#b28b67"/></g><path d="M32.645,44.1h0a3.4,3.4,0,0,0,1.121-.268,8.2,8.2,0,0,0,1.345-.708,14.871,14.871,0,0,0,1.492-1.1c.513-.426,1.038-.91,1.562-1.442A25.717,25.717,0,0,0,39.92,38.6c.557-.7,1.084-1.428,1.576-2.183s.948-1.535,1.362-2.331a26.292,26.292,0,0,0,1.113-2.424,24.449,24.449,0,0,0,.982-3.01,21.917,21.917,0,0,0,.548-3,20.464,20.464,0,0,0,.112-2.978,20.091,20.091,0,0,0-1.29-6.4,22.133,22.133,0,0,0-1.59-3.329A25.778,25.778,0,0,0,40.527,9.76a31.341,31.341,0,0,0-2.814-3.043q-.836-.8-1.715-1.485a21.765,21.765,0,0,0-1.8-1.27,20.262,20.262,0,0,0-1.873-1.051,19.21,19.21,0,0,0-1.942-.829,18.96,18.96,0,0,0-1.816-.557q-.922-.233-1.871-.376T24.78.957q-.97-.051-1.96-.01a23.892,23.892,0,0,0-5.01.761,28.571,28.571,0,0,0-4.4,1.545A33.069,33.069,0,0,0,9.8,5.136C8.745,5.77,7.847,6.387,7.135,6.912A31.513,31.513,0,0,0,4.36,9.21a24.4,24.4,0,0,0-2.215,2.339,13.669,13.669,0,0,0-1.5,2.19A5.083,5.083,0,0,0,.01,15.593a1.966,1.966,0,0,0,.041.658,1.294,1.294,0,0,0,.252.51,1.372,1.372,0,0,0,.458.357,2.233,2.233,0,0,0,.659.2,23.47,23.47,0,0,1,4.248,1.165,49.667,49.667,0,0,1,5.272,2.293,62.445,62.445,0,0,1,5.7,3.246,55.849,55.849,0,0,1,5.526,4.024,6.288,6.288,0,0,1,2.132-.752,6.18,6.18,0,0,1,.753-.073,5.972,5.972,0,0,1,2.358.388,5.809,5.809,0,0,1,1.929,1.219,5.743,5.743,0,0,1,1.781,4.182,6.048,6.048,0,0,1-.691,2.81,6.321,6.321,0,0,1-.526.838q.568.931,1.025,1.864a19.977,19.977,0,0,1,.8,1.867A17.636,17.636,0,0,1,32.3,42.25a15.854,15.854,0,0,1,.345,1.852Z" transform="translate(39.518 27.023)" fill="#191847"/></g><g transform="translate(0 193.293)"><path d="M68.7,0,31.59,122.821,13.829,226.3,0,225.687,18.656.287Z" transform="translate(96.132 0.75)" fill="#997659"/><path d="M56.009.161c-.639,17.019-.93,31.974-1,44.932s.086,23.92.338,32.951.6,16.133.924,21.363.618,8.591.761,10.14.74,5.228,1.846,11.067,2.722,13.849,4.9,24.057,4.932,22.644,8.305,37.32q5.067,22.046,12.072,50.924L68.79,226.939c-7.357-17.731-13.484-33.274-18.588-46.757-5.092-13.452-9.171-24.866-12.438-34.357S32.048,128.78,30.2,123.011s-3.085-9.736-3.914-12.02-2-6.31-3.516-12.076S19.4,85.652,17.206,76.42s-4.726-20.172-7.6-32.843Q5.309,24.6,0,.482Z" transform="translate(122.248 0.512)" fill="#b28b67"/><g transform="translate(147.992 200.063)"><path d="M53.311,7.024a1.987,1.987,0,0,1,.823-.064,2.1,2.1,0,0,1,.767.259,2.161,2.161,0,0,1,.621.532,2.131,2.131,0,0,1,.385.753l1.933,6.905c0,.686-.057,1.527-.143,2.4s-.2,1.785-.314,2.609-.228,1.562-.314,2.095-.143.858-.143.858l-10.243-.481-19.319-.907L8.79,21.113.5,20.724s-.136-.461-.266-1.159A12.85,12.85,0,0,1,0,16.988a5.353,5.353,0,0,1,.643-2.645,2.858,2.858,0,0,1,2.368-1.366c1.172-.092,2.245-.182,3.2-.265s1.779-.158,2.461-.223,1.217-.117,1.582-.153l.559-.057L36.981,1.656a.972.972,0,0,1,.4-.071,1.027,1.027,0,0,1,.385.089,1.066,1.066,0,0,1,.556.577l1.693,4.2s.276.141.732.355,1.094.5,1.818.79A24.5,24.5,0,0,0,44.9,8.41a10.313,10.313,0,0,0,2.288.424Z" transform="translate(2.16 19.445)" fill="#e4e4e4"/></g><g transform="translate(57.076 196.596)"><path d="M51.185,6.837a1.87,1.87,0,0,1,.79-.064,1.987,1.987,0,0,1,.736.253,2.093,2.093,0,0,1,.965,1.258l1.855,6.763c0,.672-.055,1.5-.137,2.354s-.192,1.749-.3,2.557-.219,1.531-.3,2.052-.137.841-.137.841l-9.833-.462-18.547-.871L8.442,20.682.483,20.309s-.13-.452-.256-1.136A12.839,12.839,0,0,1,0,16.648a5.335,5.335,0,0,1,.617-2.593,2.74,2.74,0,0,1,2.274-1.341c1.125-.091,2.156-.18,3.069-.262s1.709-.157,2.363-.22,1.169-.116,1.519-.152l.537-.057L35.509,1.591a.917.917,0,0,1,.381-.07.968.968,0,0,1,.37.087,1.022,1.022,0,0,1,.315.223,1.046,1.046,0,0,1,.218.341l1.626,4.116s.265.138.7.347,1.05.489,1.745.773a23.176,23.176,0,0,0,2.244.795,9.716,9.716,0,0,0,2.2.413Z" transform="translate(2.074 19.054)" fill="#e4e4e4"/></g><path d="M63.738,0,47.85,62.921,0,62.534,7.071.325Z" transform="translate(106.072 0.722)" fill="#69a1ac"/><path d="M59.814.026a91.447,91.447,0,0,1,3.8,19.93,188.917,188.917,0,0,1,.663,20.617c-.119,6.411-.485,12.075-.821,16.135s-.643,6.516-.643,6.516l-49.415-.4L0,.369Z" transform="translate(118.982 0.645)" fill="#89c5cc"/></g><g transform="translate(20.415 85.425)"><path d="M204.192,91.728a2.541,2.541,0,0,0,.81-.843,3.02,3.02,0,0,0,.44-1.339,2.922,2.922,0,0,0-.343-1.6,4.69,4.69,0,0,0-1.537-1.634c-1.885-1.3-3.977-2.85-6.076-4.482s-4.2-3.345-6.114-4.989-3.633-3.214-4.967-4.561a15.34,15.34,0,0,1-2.645-3.206c-.745-1.514-1.937-6.33-3.305-12.7s-2.911-14.283-4.361-22.006-2.8-15.244-3.8-20.839-1.623-9.256-1.623-9.256l-21.027.26s1.212,3.929,3.055,9.887,4.323,13.96,6.852,22.087,5.116,16.4,7.165,22.88,3.565,11.173,3.955,12.144a10.22,10.22,0,0,1,.546,4.82,23.638,23.638,0,0,1-1.239,5.277c-.6,1.761-1.348,3.487-2.072,5.068s-1.429,3.017-1.957,4.2a5.437,5.437,0,0,0,2.194.559,3.581,3.581,0,0,0,1.708-.4,5.962,5.962,0,0,0,1.4-1.046c.436-.42.851-.893,1.276-1.367a15.9,15.9,0,0,1,1.426-1.449,5.793,5.793,0,0,1,1.71-1.06,4.827,4.827,0,0,1,2.215-.281,8.852,8.852,0,0,1,2.942.889c1.442.685,2.823,1.468,4.172,2.259s2.668,1.59,3.984,2.3a25.825,25.825,0,0,0,3.975,1.8,13.248,13.248,0,0,0,4.147.755,11.418,11.418,0,0,0,1.669-.1,12.067,12.067,0,0,0,1.731-.369,13.938,13.938,0,0,0,1.8-.664A17.306,17.306,0,0,0,204.192,91.728ZM27.888,34.669,56.02,17.462,47,1.463,20.045,28.792q-2.922,1.3-5.575,2.665T9.434,34.249q-2.383,1.427-4.5,2.919T.968,40.215a5.7,5.7,0,0,0-.749,1.2,1.8,1.8,0,0,0-.174,1.2c.106.346.41.611,1.013.716a7.63,7.63,0,0,0,2.815-.251c1.308-.3,2.637-.587,3.91-.822s2.492-.42,3.578-.511a11.088,11.088,0,0,1,2.783.046,2.055,2.055,0,0,1,1.525.847,2.129,2.129,0,0,1,.145,1.486,16.773,16.773,0,0,1-.508,1.714,6.154,6.154,0,0,0-.35,1.817,2.8,2.8,0,0,0,.616,1.8.812.812,0,0,0,.117.122.672.672,0,0,0,.132.087.652.652,0,0,0,.148.052.748.748,0,0,0,.163.018A2.943,2.943,0,0,0,17.81,48.8a22.424,22.424,0,0,0,2.516-2.82q1.469-1.882,3.358-4.707T27.888,34.669Z" transform="translate(11.53 91.995)" fill="#b28b67"/><path d="M91.521,2.217,83.02.972A221.042,221.042,0,0,1,70.057,28.464,239.973,239.973,0,0,1,53.133,54.6a271.423,271.423,0,0,1-20.8,24.725,316.368,316.368,0,0,1-24.56,23.268l26.76,33.479A341.045,341.045,0,0,0,58.67,103.635,240.609,240.609,0,0,0,76.917,70.412,175.663,175.663,0,0,0,88.211,36.546,140.881,140.881,0,0,0,91.521,2.217Z" transform="translate(31.428 6.85)" fill="#191847"/><path d="M75.819,114.948,0,115.232s1.62-4.04,4.052-10.81,5.686-16.3,8.941-27.243c3.26-10.962,6.525-23.355,8.976-35.848s4.092-25.1,4.092-36.443L48.93.776A128.6,128.6,0,0,1,60.253,23.942a185.127,185.127,0,0,1,7.556,26.439c2.007,9.414,3.558,19.445,4.833,30.176S74.917,102.729,75.819,114.948Z" transform="translate(84.563 2.654)" fill="#dde3e9"/><path d="M87.138,149.366A274.9,274.9,0,0,0,73.793,85.441,256.539,256.539,0,0,0,52.915,39.186,217.422,217.422,0,0,0,33.793,11.191a114.511,114.511,0,0,0-8.355-9.409l-.018.017,0,0,0,0,0,0,0,0-1.5.043c-.673.043-1.521.1-2.415.162s-1.833.128-2.688.189l-2.182.157-.9.066L10.2,18.585c-.219,7.332-.967,18.394-1.966,30.858S5.989,75.758,4.768,88.692s-2.412,24.933-3.3,33.7S0,136.7,0,136.7l49.871.04q-.032,1.54-.084,3.092t-.124,3.113q-.072,1.561-.165,3.133t-.207,3.152Z" transform="translate(108.558 1.635)" fill="#2f3676"/><path d="M0,49.877H0l14,.012q.138-6.143-.032-12.354t-.646-12.459q-.476-6.247-1.257-12.515T10.206.039Q9.9,4.044,9.537,7.8t-.789,7.253q-.424,3.495-.9,6.718T6.826,27.933q-.684,3.741-1.456,6.994t-1.627,6q-.855,2.749-1.792,4.989A32.5,32.5,0,0,1,0,49.875Z" transform="translate(144.418 88.886)" fill="rgba(0,0,0,0.1)"/><path d="M24.644,11.634,0,.21V11.78Z" transform="translate(122.648 95.964)" fill="rgba(255,255,255,0.2)"/></g></g><g transform="translate(119 540)"><g transform="translate(82)"><g transform="translate(54 31)"><path d="M0,73,8.262,34.49C3.655,29.081.536,22.452,1.057,15.025c1.5-21.4,31.292-16.692,37.086-5.891s5.107,38.2-2.382,40.129c-2.987.77-9.349-1.116-15.825-5.019L24,73Z" fill="#b28b67"/></g><path d="M-58.407,23.9A7.5,7.5,0,0,1-59.97,21a29.39,29.39,0,0,1-1-3.3c-.5-2.249-.509-4.836,1.1-6.582a7.548,7.548,0,0,1,5-2.165,9.187,9.187,0,0,1,3.545.449c1.129.371,2.1,1.111,3.2,1.57a14.306,14.306,0,0,1,1.687-7.03,7.008,7.008,0,0,1,5.218-3.4,10.347,10.347,0,0,1,6.357,1.28c.494.267.984.547,1.453.865a4.071,4.071,0,0,0,1.261.693c.513.121.768-.176,1.1-.55a8.368,8.368,0,0,1,1.3-1.168A7.647,7.647,0,0,1-22.6.423a6.649,6.649,0,0,1,2.917,2.109c.666.873,1.14,2.258,2.059,2.866.39.258.665-.084,1.02-.337.533-.38,1.042-.8,1.581-1.169A7.242,7.242,0,0,1-12.57,2.781c1.286-.3,3.064-.228,3.432,1.457A6.954,6.954,0,0,1-9.15,6.186c-.061.876-.125,1.751-.2,2.625a18.954,18.954,0,0,1-.256,1.957,2.863,2.863,0,0,0-.127,1.343c.186.435,1.046.188,1.413.2A5.582,5.582,0,0,1-6.2,12.78a2.286,2.286,0,0,1,1.285,1.189,2.136,2.136,0,0,1,.036,1.118,3.335,3.335,0,0,0,.068,1.147c.974-.48,4.349-1.545,4.774.2a2.731,2.731,0,0,1-.426,1.728,14.979,14.979,0,0,1-1.573,2.395,21.412,21.412,0,0,1-4.19,4.065,2.746,2.746,0,0,1,.716,4.6,3.4,3.4,0,0,1-2.5.725,5.524,5.524,0,0,0-1.033-.082,2.47,2.47,0,0,1-.468.158,13.928,13.928,0,0,1-3.832-.486,12.636,12.636,0,0,1-5.844-3.056,1.8,1.8,0,0,0-1.352-.621c-.5.005-1,.143-1.5.156a10.791,10.791,0,0,1-3.761-1.048,14.189,14.189,0,0,1-1.232,5c-.556,1.223-1.717,1.4-2.858,1.508-3.649.343-7.31-.04-10.963-.035,3.536.8,7.191,1.129,10.7,2.069,1.584.425.375,1.493-.3,2.233a12.87,12.87,0,0,0-2.52,4.32c-1.73-2.255-4.788-3.741-7.5-3.048-2.993.765-5.1,4.813-3.187,7.723,1.111,1.689,3.118,2.341,4.788,3.067-1.3,1.354-1.618,3.354-2.4,5.039a3.606,3.606,0,0,1-1.794,2.06,2.1,2.1,0,0,0-.947.377c-.313.323-.387.684-.786.961a4.434,4.434,0,0,1-5.494-.423,3.586,3.586,0,0,1,.122-4.7c-1.7-.708-4.791-1.618-4.116-4.263-3.679-.244-12.611-6.211-7.674-10.571-2.71-1.531-5.2-5.274-3.459-8.574,1.34-2.541,4.457-3.676,7.015-3.811" transform="translate(103 15)" fill="#191847"/></g><g transform="translate(0 187)"><g transform="translate(10 42)"><g transform="translate(55)"><path d="M27.623,0h77.255L115,124H0Z" fill="#c5cfd6"/><path d="M27.623,0h23.76L65.6,124H0Z" fill="rgba(0,0,0,0.1)"/></g></g><path d="M57.131,141.549c-1-12.65-2.861-56.444-1-76.715.785-8.557,1.633-16.7,2.465-23.927-17.858,32.116-47.08,79.1-47.08,79.1L0,114.743S13.566,70.049,22.247,51.638c9.91-21.017,19.2-39.015,23.112-45.355,6.151-9.971,16.86-6.492,22.518-.456C76.114.882,89.933,7.236,89.924,14.309,89.895,35.474,70.58,135.223,69.572,141.528c-.534,3.337-3.812,5.375-6.872,5.375C59.977,146.9,57.427,145.292,57.131,141.549Z" transform="translate(190.077 14.929)" fill="#b28b67"/><path d="M0,111.841,5.118,10.331c3.688-17.553,34.907-9.406,34.894,0-.029,21.355-12.857,95.127-12.866,101.489Z" transform="translate(229.152 8.029) rotate(20)" fill="#1f28cf"/><g transform="translate(199.086 100.429) rotate(30)"><path d="M4.474,5.033A2,2,0,0,0,1.908,6.381L0,13.106A64.242,64.242,0,0,0,.9,21H57.3s2.2-7.268-2.538-7.848-7.87-1.047-7.87-1.047L20.68.419a1,1,0,0,0-1.332.532L17.663,5.039s-4.385,2.046-7.127,2.046Z" transform="translate(1 19)" fill="#e4e4e4"/></g><g transform="translate(242 126)"><path d="M4.474,5.033A2,2,0,0,0,1.908,6.381L0,13.106A64.242,64.242,0,0,0,.9,21H57.3s2.2-7.268-2.538-7.848-7.87-1.047-7.87-1.047L20.68.419a1,1,0,0,0-1.332.532L17.663,5.039s-4.385,2.046-7.127,2.046Z" transform="translate(1 19)" fill="#e4e4e4"/></g><path d="M170.77,36.433c0,26.567-12.617,88.537-12.625,94.387L131,130.841S136.96,47.9,135.227,47s-71.051,6.921-91.84,6.921C13.408,53.925,1.006,35.02,0,0H59.386c12.092,1.294,75.162,14.015,98.586,18.388C168,20.261,170.77,29.115,170.77,36.433Z" transform="translate(112 0)" fill="#2b44ff"/></g><g transform="translate(22 82)"><path d="M54.362,51.452l15.247-8.376s3.208-12.21,7.672-12.287c1.151-.536.712,1.809.547,4.153-.163,2.309-.059,4.619,2.091,4.177,4.333-.892,14.908-8.757,16.73-7.16,2.7,2.363.293,9.617-2.54,13.226-5.294,6.745-9.676,9.051-20.508,12.072-8.5,2.369-18.37,9.5-18.37,9.5ZM0,35.412,34.709,16.4A85.868,85.868,0,0,1,51.771.432c1.712-.715,4.705-1.148,1.906,3.821s-5.521,10.321-4.1,11.852c.626.672,1.664.636,2.776.6,1.417-.045,2.955-.091,3.909,1.336q1.7,2.543-18.228,8.036L12.818,49.169Z" transform="translate(158.638 7.288)" fill="#997659"/><path d="M5.5,6.364A85.286,85.286,0,0,0,52.75,0l4.34,16.026C43.453,25.855,25.36,32.84,10.935,30.139-.433,28.009-4.081,13.273,5.5,6.364Z" transform="translate(135.301 33.041) rotate(-9)" fill="#2026a2"/><path d="M33.421,142.48c-12.21-1.587-23.571-3.173-30.172-1.874C-8.069,103.851,13.814,88.915,13.831,65.4,13.851,39.642,34.53,0,37.573,0H65.32c1.53,19.659,9.229,41.325,15.551,62.729,20.164,4.578,64.941-11.356,64.941-11.356s11.3,23.385,10.451,33.343c-26.064,13.615-48.4,19.685-66.8,20.085.585,10.919-.745,21.311-5.209,30.8-3.341,7.1-12.583,9.227-23.862,9.227C51.995,144.832,42.473,143.656,33.421,142.48Z" transform="translate(77.224 0)" fill="#1f28cf"/></g></g></g></svg>